<svg width="160" height="20" viewBox="0 0 160 20" fill="none" xmlns="http://www.w3.org/2000/svg">
<g clip-path="url(#clip0_1_1073)">
<path d="M10.0604 20C15.5832 20 20.0604 15.5228 20.0604 10C20.0604 4.47715 15.5832 0 10.0604 0C4.53752 0 0.0603638 4.47715 0.0603638 10C0.0603638 15.5228 4.53752 20 10.0604 20Z" fill="#26A17B"/>
<path d="M15.526 7.66625C15.0266 7.31187 14.4922 6.93375 13.9697 6.55875C13.9579 6.55 13.9466 6.54125 13.9322 6.5325C13.871 6.48222 13.8017 6.4427 13.7272 6.41562L13.721 6.4125C12.3229 6.06943 10.9252 5.72484 9.52786 5.37875L5.78786 4.45562L5.68974 4.42937C5.57724 4.3975 5.44724 4.36187 5.30849 4.37937C5.27048 4.3852 5.23422 4.39928 5.20224 4.42062L5.16724 4.45C5.12341 4.49494 5.08992 4.5489 5.06911 4.60812L5.06036 4.63187V4.76625L5.06661 4.78687C5.85411 7.0275 6.66286 9.30062 7.44286 11.5C8.04349 13.1937 8.66786 14.9475 9.27661 16.67C9.31411 16.7869 9.42099 16.8638 9.55411 16.875H9.58286C9.64103 16.8765 9.69853 16.8623 9.74933 16.8339C9.80014 16.8056 9.84237 16.7641 9.87161 16.7138L12.1591 13.3306C12.716 12.5075 13.2735 11.6819 13.831 10.8587L14.5154 9.845C14.8904 9.28875 15.2779 8.71438 15.6622 8.155L15.6822 8.12625V8.09062C15.691 7.98812 15.6935 7.77812 15.526 7.66625ZM12.846 8.89937C12.3085 9.18313 11.7604 9.47625 11.2085 9.76625L12.1735 8.7175C12.5747 8.27812 12.9935 7.82375 13.4035 7.37875L13.4122 7.37C13.4466 7.32312 13.4904 7.27937 13.5366 7.2325C13.5679 7.20062 13.6029 7.16812 13.6347 7.13C13.8485 7.28 14.0647 7.43187 14.2729 7.58125C14.4229 7.68937 14.576 7.79812 14.7322 7.90625C14.1013 8.23312 13.4725 8.56417 12.846 8.89937ZM11.466 8.75875C11.0529 9.2125 10.6254 9.67812 10.201 10.1381C9.37737 9.12469 8.55133 8.11323 7.72286 7.10375L6.61099 5.7475L6.60849 5.74437C6.52474 5.64812 6.44349 5.5425 6.36286 5.44312C6.31099 5.37562 6.25599 5.31125 6.20099 5.24375C6.53599 5.33125 6.87411 5.41375 7.20599 5.4925C7.49786 5.56312 7.80099 5.63625 8.09849 5.7125L13.1266 6.95125C12.5691 7.555 12.0085 8.16687 11.466 8.75875ZM10.0129 14.4675C10.0447 14.16 10.0797 13.8438 10.1085 13.5331C10.1347 13.2837 10.1604 13.0294 10.1866 12.7863C10.2266 12.3962 10.2704 11.9925 10.3054 11.5969L10.3135 11.5269C10.3422 11.2744 10.371 11.0144 10.3885 10.7531C10.4221 10.7341 10.457 10.7174 10.4929 10.7031C10.536 10.6831 10.5791 10.6656 10.6222 10.6394C11.2893 10.2839 11.9574 9.93031 12.6266 9.57875C13.2941 9.2275 13.9785 8.86375 14.6572 8.50375C14.0414 9.40828 13.428 10.3145 12.8172 11.2225C12.3004 11.9862 11.7691 12.7744 11.2404 13.5506C11.0329 13.8612 10.816 14.1775 10.611 14.4819C10.3797 14.8219 10.1429 15.17 9.91224 15.5194C9.94099 15.1675 9.97536 14.8131 10.0129 14.4675ZM5.98786 5.935C5.95036 5.82937 5.90911 5.72125 5.87474 5.61875C6.65474 6.57375 7.43974 7.53437 8.20536 8.46562C8.60099 8.94875 8.99661 9.42937 9.39224 9.91562C9.47036 10.0062 9.54849 10.1031 9.62349 10.1969C9.72161 10.3169 9.81974 10.4431 9.92661 10.5631C9.89161 10.8644 9.86286 11.1694 9.83099 11.4619C9.81099 11.6669 9.79099 11.8725 9.76786 12.0806V12.0831C9.75911 12.2144 9.74161 12.3469 9.72724 12.4756L9.66099 13.0587L9.65786 13.0787C9.60599 13.6706 9.54224 14.2681 9.48161 14.8481C9.45599 15.0881 9.43286 15.3344 9.40661 15.5806C9.39224 15.5369 9.37536 15.4925 9.36036 15.4513C9.31633 15.3319 9.27404 15.2119 9.23349 15.0913L8.92411 14.2212L5.98724 5.935" fill="white"/>
</g>
<g clip-path="url(#clip1_1_1073)">
<mask id="mask0_1_1073" style="mask-type:luminance" maskUnits="userSpaceOnUse" x="28" y="3" width="21" height="13">
<path d="M48.0609 3.2251H28.0609V15.7179H48.0609V3.2251Z" fill="white"/>
</mask>
<g mask="url(#mask0_1_1073)">
<path fill-rule="evenodd" clip-rule="evenodd" d="M48.0216 15.0705C48.0216 15.4385 47.7212 15.7389 47.3533 15.7389H28.7057C28.3378 15.7389 28.0374 15.4385 28.0374 15.0705V3.9143C28.0374 3.54634 28.3378 3.24585 28.7057 3.24585H47.3533C47.7212 3.24585 48.0216 3.54634 48.0216 3.9143L48.0216 15.0705Z" fill="#14477C"/>
<path fill-rule="evenodd" clip-rule="evenodd" d="M40.4264 13.0765L40.6103 13.0729L40.7946 13.0616L40.9746 13.0352L41.1511 13.0052L41.3238 12.9639L41.4965 12.919L41.6616 12.8587L41.8269 12.7951L41.9844 12.7235L42.1383 12.6447L42.2886 12.5582L42.4351 12.4645L42.5777 12.3632L42.7129 12.258L42.8404 12.1454L42.9679 12.025L43.0844 11.9011L43.1973 11.7697L43.306 11.6345L43.4074 11.4957L43.4974 11.3492L43.5877 11.1991L43.6627 11.0451L43.7378 10.8837L43.8016 10.7221L43.8581 10.5533L43.9068 10.3841L43.9479 10.2115L43.9782 10.0311L44.0008 9.85475L44.0156 9.67056L44.0192 9.48684L44.0156 9.3026L44.0008 9.11859L43.9782 8.94209L43.9479 8.76586L43.9068 8.59287L43.8581 8.42409L43.8016 8.25494L43.7378 8.09358L43.6627 7.93575L43.5877 7.78184L43.4974 7.63168L43.4074 7.48522L43.306 7.34638L43.1973 7.21117L43.0844 7.07978L42.9679 6.95585L42.8404 6.83938L42.7129 6.72674L42.5777 6.61796L42.4351 6.52019L42.2886 6.42624L42.1383 6.34004L41.9844 6.261L41.8269 6.18967L41.6616 6.12604L41.4965 6.06961L41.3238 6.02085L41.1511 5.97954L40.9746 5.94952L40.7946 5.92694L40.6103 5.91182L40.4264 5.9082L40.2425 5.91182L40.0624 5.92694L39.8821 5.94952L39.7058 5.97954L39.5329 6.02085L39.3603 6.06961L39.1949 6.12604L39.0336 6.18967L38.8758 6.261L38.7219 6.34004L38.5718 6.42624L38.4254 6.52019L38.2866 6.61796L38.1511 6.72674L38.0198 6.83938L37.8961 6.95585L37.7758 7.07978L37.6671 7.21117L37.558 7.34638L37.4605 7.48522L37.3666 7.63168L37.2804 7.78184L37.2014 7.93575L37.1301 8.09358L37.0662 8.25494L37.0101 8.42409L36.9613 8.59287L36.9197 8.76586L36.89 8.94209L36.8674 9.11859L36.8523 9.3026L36.8484 9.48684L36.8523 9.67056L36.8674 9.85475L36.89 10.0311L36.9197 10.2115L36.9613 10.3841L37.0101 10.5533L37.0662 10.7221L37.1301 10.8837L37.2014 11.0451L37.2804 11.1991L37.3666 11.3492L37.4605 11.4957L37.558 11.6345L37.6671 11.7697L37.7758 11.9011L37.8961 12.025L38.0198 12.1454L38.1511 12.258L38.2866 12.3632L38.4254 12.4645L38.5718 12.5582L38.7219 12.6447L38.8758 12.7235L39.0336 12.7951L39.1949 12.8587L39.3603 12.919L39.5329 12.9639L39.7058 13.0052L39.8821 13.0352L40.0624 13.0616L40.2425 13.0729L40.4264 13.0765Z" fill="#FBB230"/>
<path fill-rule="evenodd" clip-rule="evenodd" d="M35.6321 13.0765L35.8161 13.0729L35.9961 13.0616L36.1765 13.0352L36.3527 13.0052L36.5256 12.9639L36.6985 12.919L36.8635 12.8587L37.0248 12.7951L37.1827 12.7235L37.3365 12.6447L37.4867 12.5582L37.6331 12.4645L37.7719 12.3632L37.9074 12.258L38.0387 12.1454L38.1623 12.025L38.2827 11.9011L38.3916 11.7697L38.5005 11.6345L38.598 11.4957L38.6918 11.3492L38.778 11.1991L38.857 11.0451L38.9284 10.8837L38.9922 10.7221L39.0484 10.5533L39.0974 10.3841L39.1387 10.2115L39.1685 10.0311L39.191 9.85475L39.2062 9.67056L39.21 9.48684L39.2062 9.3026L39.191 9.11859L39.1685 8.94209L39.1387 8.76586L39.0974 8.59287L39.0484 8.42409L38.9922 8.25494L38.9284 8.09358L38.857 7.93575L38.778 7.78184L38.6918 7.63168L38.598 7.48522L38.5005 7.34638L38.3916 7.21117L38.2827 7.07978L38.1623 6.95585L38.0387 6.83938L37.9074 6.72674L37.7719 6.61796L37.6331 6.52019L37.4867 6.42624L37.3365 6.34004L37.1827 6.261L37.0248 6.18967L36.8635 6.12604L36.6985 6.06961L36.5256 6.02085L36.3527 5.97954L36.1765 5.94952L35.9961 5.92694L35.8161 5.91182L35.6321 5.9082L35.4482 5.91182L35.264 5.92694L35.0839 5.94952L34.9075 5.97954L34.735 6.02085L34.5621 6.06961L34.3969 6.12604L34.2317 6.18967L34.0742 6.261L33.9203 6.34004L33.7699 6.42624L33.6238 6.52019L33.4811 6.61796L33.3457 6.72674L33.2182 6.83938L33.0906 6.95585L32.9742 7.07978L32.8613 7.21117L32.7526 7.34638L32.6512 7.48522L32.5611 7.63168L32.4709 7.78184L32.3959 7.93575L32.3208 8.09358L32.2569 8.25494L32.2007 8.42409L32.1517 8.59287L32.1143 8.76586L32.0804 8.94209L32.0581 9.11859L32.0429 9.3026L32.0394 9.48684L32.0429 9.67056L32.0581 9.85475L32.0804 10.0311L32.1143 10.2115L32.1517 10.3841L32.2007 10.5533L32.2569 10.7221L32.3208 10.8837L32.3959 11.0451L32.4709 11.1991L32.5611 11.3492L32.6512 11.4957L32.7526 11.6345L32.8613 11.7697L32.9742 11.9011L33.0906 12.025L33.2182 12.1454L33.3457 12.258L33.4811 12.3632L33.6238 12.4645L33.7699 12.5582L33.9203 12.6447L34.0742 12.7235L34.2317 12.7951L34.3969 12.8587L34.5621 12.919L34.735 12.9639L34.9075 13.0052L35.0839 13.0352L35.264 13.0616L35.4482 13.0729L35.6321 13.0765Z" fill="#EB2230"/>
<path fill-rule="evenodd" clip-rule="evenodd" d="M37.6107 7.28246H39.5143V7.08716H37.7759L37.6107 7.28246Z" fill="#FBB230"/>
<path fill-rule="evenodd" clip-rule="evenodd" d="M37.326 7.71435H39.5149V7.51904H37.4387L37.326 7.71435Z" fill="#FBB230"/>
<path fill-rule="evenodd" clip-rule="evenodd" d="M37.1118 8.14647H39.5146V7.95117H37.1982L37.1118 8.14647Z" fill="#FBB230"/>
<path fill-rule="evenodd" clip-rule="evenodd" d="M36.9653 8.57791H39.5146V8.38647H37.0253L36.9653 8.57791Z" fill="#FBB230"/>
<path fill-rule="evenodd" clip-rule="evenodd" d="M37.0508 10.6735H39.5213V10.4783H36.991L37.0508 10.6735Z" fill="#FBB230"/>
<path fill-rule="evenodd" clip-rule="evenodd" d="M37.2314 11.1054H39.5216V10.9102H37.1414L37.2314 11.1054Z" fill="#FBB230"/>
<path fill-rule="evenodd" clip-rule="evenodd" d="M37.4904 11.5371H39.5215V11.3418H37.3665L37.4904 11.5371Z" fill="#FBB230"/>
<path fill-rule="evenodd" clip-rule="evenodd" d="M37.8439 11.969H39.522V11.7737H37.6712L37.8439 11.969Z" fill="#FBB230"/>
<path fill-rule="evenodd" clip-rule="evenodd" d="M36.8787 9.00997H39.5143V8.81836H36.9162L36.8787 9.00997Z" fill="#FBB230"/>
<path fill-rule="evenodd" clip-rule="evenodd" d="M38.4852 10.2416H39.4914V10.0464H38.5229L38.4852 10.2416Z" fill="#FBB230"/>
<path fill-rule="evenodd" clip-rule="evenodd" d="M38.5644 9.80956H39.4918V9.61426H38.6021L38.5644 9.80956Z" fill="#FBB230"/>
<path fill-rule="evenodd" clip-rule="evenodd" d="M36.8115 9.61426H37.0742V9.80956H36.8267L36.8115 9.61426Z" fill="#FBB230"/>
<path fill-rule="evenodd" clip-rule="evenodd" d="M43.6746 11.5068C43.7685 11.5068 43.8436 11.5856 43.8436 11.6756C43.8436 11.7696 43.7685 11.8447 43.6746 11.8447C43.5807 11.8447 43.5058 11.7696 43.5058 11.6756C43.5058 11.5856 43.5807 11.5068 43.6746 11.5068ZM43.6746 11.5368C43.7536 11.5368 43.8172 11.6007 43.8172 11.6756C43.8172 11.7547 43.7536 11.8185 43.6746 11.8185C43.5997 11.8185 43.5355 11.7547 43.5355 11.6756C43.5355 11.6007 43.5997 11.5368 43.6746 11.5368Z" fill="#FBB230"/>
<path d="M43.6108 11.751V11.6084H43.6707C43.6856 11.6084 43.6969 11.6084 43.7046 11.6122C43.7118 11.6158 43.7159 11.6197 43.7194 11.6233C43.7231 11.631 43.7269 11.6384 43.7269 11.6459C43.7269 11.6572 43.7231 11.6684 43.7194 11.6723C43.7118 11.6797 43.7007 11.6836 43.6892 11.6871C43.6969 11.691 43.7007 11.6949 43.7045 11.6984C43.7081 11.7023 43.7158 11.7097 43.7194 11.721L43.7382 11.751H43.7045L43.6817 11.7172C43.6778 11.7059 43.6706 11.7023 43.6668 11.6985C43.6668 11.6949 43.663 11.6949 43.6593 11.691C43.6555 11.691 43.6517 11.691 43.6442 11.691H43.6404V11.751H43.6108ZM43.6405 11.6684H43.6595C43.6743 11.6684 43.6818 11.6684 43.6857 11.6648C43.6892 11.6648 43.6934 11.6648 43.6934 11.6609C43.697 11.6572 43.697 11.6536 43.697 11.6497C43.697 11.6458 43.697 11.6422 43.6934 11.6384C43.6892 11.6345 43.6857 11.6345 43.6818 11.6309C43.6818 11.6309 43.6744 11.6309 43.6631 11.6309H43.6406V11.6684H43.6405Z" fill="#FBB230"/>
<path fill-rule="evenodd" clip-rule="evenodd" d="M43.6364 10.0952C43.7302 10.0952 43.8052 10.1703 43.8052 10.2643C43.8052 10.3582 43.7302 10.4332 43.6364 10.4332C43.5425 10.4332 43.4676 10.3582 43.4676 10.2643C43.4676 10.1703 43.5425 10.0952 43.6364 10.0952ZM43.6364 10.1252C43.7154 10.1252 43.7791 10.189 43.7791 10.2643C43.7791 10.343 43.7154 10.4069 43.6364 10.4069C43.5574 10.4069 43.4937 10.343 43.4937 10.2643C43.4937 10.1891 43.5573 10.1252 43.6364 10.1252Z" fill="white"/>
<path d="M43.5726 10.3354V10.1963H43.6326C43.6477 10.1963 43.659 10.1963 43.6665 10.2001C43.6703 10.2001 43.6774 10.2076 43.6813 10.2114C43.6852 10.2189 43.6887 10.2263 43.6887 10.2341C43.6887 10.2453 43.6852 10.2527 43.6774 10.2601C43.6739 10.2676 43.6627 10.2714 43.6514 10.2753C43.6552 10.2789 43.6627 10.2828 43.6665 10.2866C43.6703 10.2902 43.6739 10.2977 43.6813 10.309L43.7003 10.3354H43.6664L43.6438 10.3053C43.6364 10.2941 43.6326 10.2866 43.6287 10.2866C43.6251 10.2828 43.6251 10.2789 43.6215 10.2789C43.6174 10.2789 43.6138 10.2789 43.6064 10.2789H43.5989V10.3354L43.5726 10.3354ZM43.599 10.2566H43.6216C43.6364 10.2566 43.6439 10.2566 43.6477 10.2528C43.6514 10.2528 43.6552 10.2489 43.6552 10.2489C43.659 10.2453 43.659 10.2414 43.659 10.2376C43.659 10.2341 43.6552 10.2263 43.6552 10.2263C43.6514 10.2228 43.6477 10.2189 43.6439 10.2189C43.6401 10.2189 43.6326 10.2189 43.6216 10.2189H43.599L43.599 10.2566Z" fill="white"/>
<path fill-rule="evenodd" clip-rule="evenodd" d="M41.2231 10.3615L41.467 9.08496H41.771L41.8088 9.21631C41.865 9.15986 41.9588 9.08496 42.1466 9.08496L42.0527 9.4229C41.9701 9.4229 41.8423 9.40777 41.7375 9.65556C41.6587 9.84341 41.621 10.1549 41.5796 10.3615H41.2231Z" fill="white"/>
<path fill-rule="evenodd" clip-rule="evenodd" d="M36.6198 8.76587H36.9573L36.8824 9.10376H37.0702L37.0138 9.36657H36.845L36.751 9.87356C36.7324 9.96749 36.751 10.0614 36.9388 10.0236L36.9014 10.3054C36.6987 10.4593 36.2929 10.3467 36.3568 9.96749L36.6198 8.76587Z" fill="white"/>
<path fill-rule="evenodd" clip-rule="evenodd" d="M38.1256 9.79826C38.163 9.59172 38.257 9.08496 37.6526 9.08496C37.0895 9.08496 37.0143 9.64817 37.0143 9.72307C36.9958 9.79826 36.9958 10.3615 37.5963 10.3615C37.7464 10.3615 37.9568 10.3427 38.0507 10.3052L38.1069 10.0423C38.0507 10.0612 37.8591 10.08 37.709 10.08C37.5777 10.08 37.3524 10.08 37.3899 9.7982L38.1256 9.79826Z" fill="white"/>
<path fill-rule="evenodd" clip-rule="evenodd" d="M34.0292 10.3616L34.3296 8.82202H33.7439L33.3309 9.76088L33.2557 8.82202H32.7114L32.4109 10.3616H32.7488L32.9743 9.25388L33.0682 10.3616H33.3873L33.8753 9.27262L33.6687 10.3616H34.0292Z" fill="white"/>
<path fill-rule="evenodd" clip-rule="evenodd" d="M34.4229 9.12249L34.3667 9.40426C34.4606 9.40426 34.6858 9.36655 34.7984 9.36655C34.911 9.36655 35.0611 9.34787 35.005 9.53567C34.911 9.53567 34.2914 9.44174 34.1976 9.98621C34.1452 10.3467 34.5731 10.4781 34.8358 10.3054L34.8735 10.3804H35.1924L35.324 9.68569C35.4628 9.05859 34.8585 9.0473 34.4229 9.12249Z" fill="white"/>
<path fill-rule="evenodd" clip-rule="evenodd" d="M40.0135 9.23524C39.9271 9.18257 39.8745 9.18257 39.7657 9.18257C39.6605 9.18257 39.4127 9.28779 39.3788 9.56928C39.3262 9.92234 39.5553 10.0802 39.8894 9.97495L39.9797 10.2754C39.4091 10.5607 38.8644 10.1176 39.0447 9.42664C39.191 8.9047 39.8819 8.58939 40.2275 9.0212L40.0135 9.23524Z" fill="white"/>
<path fill-rule="evenodd" clip-rule="evenodd" d="M42.9906 9.23535C42.0706 8.54431 41.7138 10.3618 42.4272 10.3618C42.5398 10.3618 42.6527 10.3056 42.7276 10.2678L42.7651 10.3618H43.1407L43.4411 8.74707H43.0843L42.9906 9.23535Z" fill="white"/>
<path fill-rule="evenodd" clip-rule="evenodd" d="M40.2837 9.12249L40.2275 9.40426C40.3211 9.40426 40.5467 9.36655 40.659 9.36655C40.7719 9.36655 40.9032 9.34787 40.8657 9.53567C40.7719 9.53567 40.1524 9.44174 40.0588 9.98621C40.0207 10.249 40.2463 10.3804 40.4153 10.3804C40.5841 10.3804 40.6405 10.3429 40.6967 10.3054L40.7342 10.3804H41.0535L41.1848 9.68569C41.3276 9.05859 40.7229 9.0473 40.2837 9.12249Z" fill="white"/>
<path fill-rule="evenodd" clip-rule="evenodd" d="M37.3895 9.5544H37.8212C37.87 9.21262 37.4608 9.2803 37.3895 9.5544Z" fill="#EB2230"/>
<path fill-rule="evenodd" clip-rule="evenodd" d="M34.9493 9.7984C34.8928 9.7984 34.7615 9.76092 34.6486 9.83611C34.5363 9.91101 34.4986 10.0424 34.6301 10.0801C34.7425 10.1175 34.8928 10.0424 34.9302 9.92975L34.9493 9.7984Z" fill="#EB2230"/>
<path fill-rule="evenodd" clip-rule="evenodd" d="M42.8221 9.4418C42.7095 9.29143 42.4655 9.40438 42.3903 9.68581C42.3342 9.87361 42.4468 10.005 42.5594 10.005C42.796 10.0051 42.9386 9.61836 42.8221 9.4418Z" fill="#FBB230"/>
<path fill-rule="evenodd" clip-rule="evenodd" d="M40.8289 9.7984C40.7728 9.7984 40.6414 9.76092 40.5285 9.83611C40.4161 9.91101 40.3784 10.0424 40.51 10.0801C40.6224 10.1175 40.7915 10.0424 40.8102 9.92975L40.8289 9.7984Z" fill="#FBB230"/>
<path fill-rule="evenodd" clip-rule="evenodd" d="M38.1253 10.3803L38.1443 10.2489L38.3695 9.10376H38.6697L38.7071 9.23516C38.7636 9.17872 38.8575 9.10376 39.0452 9.10376L38.9513 9.4417C38.88 9.4417 38.7297 9.42657 38.6171 9.72703C38.5532 9.89975 38.5157 10.1928 38.4819 10.3803H38.1253Z" fill="white"/>
<path fill-rule="evenodd" clip-rule="evenodd" d="M36.3083 9.41184H36.2931H36.2782L36.2634 9.408L36.2483 9.40439H36.2331L36.2182 9.40049C36.1506 9.3931 36.0943 9.3892 36.0269 9.3931C35.854 9.40794 35.7791 9.51671 35.9253 9.59935C36.0418 9.66708 36.132 9.65574 36.2106 9.73098C36.3797 9.88857 36.2932 10.1928 36.1054 10.3091L36.0718 10.3242L36.0343 10.3393L35.9931 10.3504L35.9557 10.3616C35.7753 10.3917 35.5314 10.3842 35.3548 10.3242L35.4036 10.0725C35.5462 10.1025 35.7792 10.1664 35.8879 10.0915C36.0119 10.0089 35.8992 9.9111 35.8089 9.86984L35.764 9.85488L35.7192 9.8362C35.3623 9.67448 35.4452 9.24267 35.7828 9.15264C35.9179 9.12261 36.0531 9.12261 36.1922 9.1339H36.2183C36.2522 9.13751 36.2822 9.14141 36.3122 9.1488H36.3271L36.3384 9.15264H36.3497L36.3571 9.15648H36.3684L36.3083 9.41184Z" fill="white"/>
</g>
</g>
<g clip-path="url(#clip2_1_1073)">
<path d="M66.0601 20C71.583 20 76.0601 15.5228 76.0601 10C76.0601 4.47715 71.583 0 66.0601 0C60.5373 0 56.0601 4.47715 56.0601 10C56.0601 15.5228 60.5373 20 66.0601 20Z" fill="#EB0029"/>
<path fill-rule="evenodd" clip-rule="evenodd" d="M61.5391 5.35789C61.6308 5.60145 65.4983 15.3033 65.5074 15.3125C65.5179 15.323 71.0462 8.61722 71.0601 8.57708C71.0671 8.557 69.1386 6.72706 69.0878 6.7055C69.0664 6.69643 67.3695 6.38145 65.317 6.00553C63.2643 5.62961 61.5704 5.31867 61.5525 5.31458C61.5249 5.30823 61.5229 5.31475 61.5391 5.35789ZM65.6786 6.60615C67.1663 6.87897 68.3835 7.10801 68.3835 7.11515C68.3835 7.12834 66.3661 8.80747 66.3031 8.84673C66.2737 8.86508 66.0367 8.6762 64.6212 7.50604C62.747 5.95672 62.9315 6.11126 62.9553 6.11061C62.9653 6.11034 64.1908 6.33333 65.6786 6.60615ZM64.3178 7.93618C65.5376 8.94626 66.0433 9.37615 66.0385 9.39878C66.0347 9.41639 65.9136 10.4137 65.7695 11.6151C65.6253 12.8164 65.503 13.8122 65.4978 13.8278C65.4926 13.8435 64.8327 12.211 64.0314 10.2002C63.2301 8.18936 62.5696 6.53211 62.5637 6.51743C62.5577 6.50275 62.5612 6.49409 62.5715 6.49819C62.5817 6.50226 63.3676 7.14937 64.3178 7.93618ZM69.5663 7.86534C69.8814 8.16337 70.1358 8.41047 70.1318 8.4145C70.1191 8.42712 67.0444 8.97947 67.0168 8.97408C66.9934 8.9695 68.953 7.32351 68.9819 7.32351C68.9883 7.32351 69.2514 7.56734 69.5663 7.86534ZM70.0205 9.01704C69.9304 9.14803 66.0394 13.8579 66.0357 13.8403C66.0332 13.8283 66.1463 12.8703 66.287 11.7113L66.5427 9.604L68.2491 9.29308C69.1876 9.12204 69.976 8.98133 70.0012 8.98034C70.043 8.9787 70.0446 8.98189 70.0205 9.01704Z" fill="white"/>
</g>
<g clip-path="url(#clip3_1_1073)">
<path d="M94.0601 20C99.583 20 104.06 15.5228 104.06 10C104.06 4.47717 99.583 0 94.0601 0C88.5373 0 84.0601 4.47717 84.0601 10C84.0601 15.5228 88.5373 20 94.0601 20Z" fill="#8DC351"/>
<path d="M98.7435 8.30652C98.2702 8.06652 97.7002 8.01652 97.0402 8.15986C97.6102 7.41652 97.6302 6.60319 97.1002 5.72652C96.9102 5.40652 96.6802 5.15986 96.4068 4.98986C96.1335 4.81652 95.8335 4.71986 95.4968 4.69652C95.1635 4.67319 94.8202 4.69652 94.4768 4.76319C94.1302 4.83319 93.7502 4.94319 93.3335 5.09986L92.4202 3.18652L91.2502 3.74319L92.1368 5.60319C91.9335 5.69986 91.6268 5.85319 91.2168 6.05986L90.3235 4.18319L89.1535 4.73986L90.0668 6.65319C89.9035 6.73652 89.6568 6.85652 89.3335 7.01319L87.7202 7.77319L88.3135 9.01986L89.1568 8.61652C89.5402 8.43319 89.8502 8.49652 90.0802 8.80986L91.1202 10.9899C91.1702 10.9665 91.2135 10.9499 91.2468 10.9399L91.1268 10.9965L92.5835 14.0499C92.6668 14.3265 92.5802 14.5265 92.3268 14.6465L91.4835 15.0499L91.9102 16.5532L93.4302 15.8299C93.5268 15.7832 93.6668 15.7199 93.8502 15.6332C94.0335 15.5499 94.1702 15.4865 94.2635 15.4399L95.1868 17.3765L96.3568 16.8199L95.4435 14.9065C95.6602 14.8099 95.9702 14.6665 96.3735 14.4732L97.2835 16.3799L98.4535 15.8232L97.5302 13.8865C97.9368 13.6699 98.2868 13.4532 98.5802 13.2465C98.8735 13.0365 99.1402 12.8032 99.3768 12.5432C99.6135 12.2832 99.7868 12.0199 99.9002 11.7465C100.013 11.4765 100.07 11.1732 100.067 10.8365C100.067 10.5032 99.9968 10.1465 99.8602 9.76986C99.5902 9.03319 99.2202 8.54319 98.7435 8.30652ZM91.8968 7.41319C91.9335 7.39652 92.0302 7.34652 92.1935 7.26652C92.3568 7.18652 92.4935 7.11652 92.6002 7.06319C92.7068 7.00986 92.8568 6.94652 93.0502 6.87319C93.2435 6.79986 93.4068 6.74652 93.5468 6.70986C93.6868 6.67319 93.8435 6.64986 94.0235 6.63652C94.2035 6.62319 94.3568 6.63652 94.4902 6.67652C94.6202 6.71652 94.7502 6.78652 94.8735 6.88652C94.9968 6.98652 95.1002 7.11986 95.1802 7.28652C95.2468 7.42986 95.2868 7.56986 95.2968 7.70652C95.3068 7.84319 95.2835 7.97319 95.2302 8.09652C95.1768 8.21986 95.1168 8.33319 95.0468 8.43652C94.9768 8.53986 94.8768 8.64652 94.7468 8.75319C94.6135 8.85986 94.4968 8.94986 94.3968 9.02319C94.2935 9.09652 94.1635 9.17652 94.0002 9.26319C93.8368 9.34986 93.7135 9.41652 93.6268 9.45986C93.5435 9.50319 93.4235 9.55986 93.2735 9.62986C93.1235 9.69986 93.0335 9.73986 93.0102 9.74986L91.8968 7.41319ZM97.5568 11.0632C97.5635 11.2032 97.5502 11.3332 97.5168 11.4565C97.4802 11.5799 97.4168 11.7032 97.3268 11.8265C97.2335 11.9532 97.1402 12.0632 97.0435 12.1565C96.9468 12.2532 96.8235 12.3565 96.6735 12.4632C96.5235 12.5732 96.3902 12.6632 96.2702 12.7332C96.1535 12.8065 96.0102 12.8865 95.8402 12.9765C95.6702 13.0665 95.5402 13.1332 95.4435 13.1799C95.3468 13.2265 95.2235 13.2832 95.0768 13.3499C94.9302 13.4165 94.8335 13.4599 94.7935 13.4799L93.5702 10.9132C93.6102 10.8932 93.7302 10.8332 93.9268 10.7332C94.1235 10.6332 94.2868 10.5532 94.4135 10.4932C94.5402 10.4332 94.7168 10.3565 94.9468 10.2665C95.1768 10.1765 95.3735 10.1099 95.5402 10.0665C95.7068 10.0232 95.8935 9.99319 96.1035 9.96986C96.3135 9.94652 96.4968 9.95652 96.6502 9.99319C96.8035 10.0299 96.9535 10.1032 97.0968 10.2099C97.2402 10.3165 97.3568 10.4599 97.4435 10.6399C97.5135 10.7832 97.5502 10.9232 97.5568 11.0632Z" fill="white"/>
</g>
<g clip-path="url(#clip4_1_1073)">
<path d="M122.029 0.0419922L124.489 2.56111L118.295 8.75517L115.835 6.29533L122.029 0.0419922Z" fill="#F0B90B" stroke="#F0B90B" stroke-width="0.0592733"/>
<path d="M125.763 3.77637L128.223 6.29548L118.295 16.2238L115.835 13.7639L125.763 3.77637Z" fill="#F0B90B" stroke="#F0B90B" stroke-width="0.0592733"/>
<path d="M114.561 7.51074L117.021 10.0299L114.561 12.4897L112.101 10.0299L114.561 7.51074Z" fill="#F0B90B" stroke="#F0B90B" stroke-width="0.0592733"/>
<path d="M129.498 7.51074L131.958 10.0299L122.029 19.9581L119.569 17.4983L129.498 7.51074Z" fill="#F0B90B" stroke="#F0B90B" stroke-width="0.0592733"/>
</g>
<g clip-path="url(#clip5_1_1073)">
<path d="M150 20C155.523 20 160 15.5228 160 10C160 4.47717 155.523 0 150 0C144.477 0 140 4.47717 140 10C140 15.5228 144.477 20 150 20Z" fill="url(#paint0_linear_1_1073)"/>
<path d="M150 12.12L146.163 10.2966L150 17L153.837 10.2966L150 12.12Z" fill="white"/>
<path d="M153.417 8.93667L150 3L146.577 8.94333L150 7.32L153.417 8.93667Z" fill="white"/>
<path d="M146.873 9.71331L150 11.1933L153.13 9.70998L150 8.22998L146.873 9.71331Z" fill="white"/>
</g>
<defs>
<linearGradient id="paint0_linear_1_1073" x1="150" y1="0" x2="150" y2="20" gradientUnits="userSpaceOnUse">
<stop stop-color="#4A819F"/>
<stop offset="1" stop-color="#034681"/>
</linearGradient>
<clipPath id="clip0_1_1073">
<rect width="20" height="20" fill="white" transform="translate(0.0598755)"/>
</clipPath>
<clipPath id="clip1_1_1073">
<rect width="20" height="12.4928" fill="white" transform="translate(28.0601 3.2251)"/>
</clipPath>
<clipPath id="clip2_1_1073">
<rect width="20" height="20" fill="white" transform="translate(56.0599)"/>
</clipPath>
<clipPath id="clip3_1_1073">
<rect width="20" height="20" fill="white" transform="translate(84.0599)"/>
</clipPath>
<clipPath id="clip4_1_1073">
<rect width="19.9401" height="20" fill="white" transform="translate(112.06)"/>
</clipPath>
<clipPath id="clip5_1_1073">
<rect width="20" height="20" fill="white" transform="translate(140)"/>
</clipPath>
</defs>
</svg>
