<svg width="160" height="20" viewBox="0 0 160 20" fill="none" xmlns="http://www.w3.org/2000/svg">
<g clip-path="url(#clip0_1_1004)">
<mask id="mask0_1_1004" style="mask-type:luminance" maskUnits="userSpaceOnUse" x="0" y="3" width="21" height="13">
<path d="M20.0609 3.2251H0.0608521V15.7179H20.0609V3.2251Z" fill="white"/>
</mask>
<g mask="url(#mask0_1_1004)">
<path fill-rule="evenodd" clip-rule="evenodd" d="M20.0216 15.0705C20.0216 15.4385 19.7212 15.7389 19.3533 15.7389H0.705683C0.337804 15.7389 0.0374146 15.4385 0.0374146 15.0705V3.9143C0.0374146 3.54634 0.337804 3.24585 0.705683 3.24585H19.3533C19.7212 3.24585 20.0216 3.54634 20.0216 3.9143L20.0216 15.0705Z" fill="#14477C"/>
<path fill-rule="evenodd" clip-rule="evenodd" d="M12.4264 13.0765L12.6103 13.0729L12.7946 13.0616L12.9746 13.0352L13.1511 13.0052L13.3238 12.9639L13.4965 12.919L13.6616 12.8587L13.8269 12.7951L13.9844 12.7235L14.1383 12.6447L14.2886 12.5582L14.4351 12.4645L14.5777 12.3632L14.7129 12.258L14.8404 12.1454L14.9679 12.025L15.0844 11.9011L15.1973 11.7697L15.306 11.6345L15.4074 11.4957L15.4974 11.3492L15.5877 11.1991L15.6627 11.0451L15.7378 10.8837L15.8016 10.7221L15.8581 10.5533L15.9068 10.3841L15.9479 10.2115L15.9782 10.0311L16.0008 9.85475L16.0156 9.67056L16.0192 9.48684L16.0156 9.3026L16.0008 9.11859L15.9782 8.94209L15.9479 8.76586L15.9068 8.59287L15.8581 8.42409L15.8016 8.25494L15.7378 8.09358L15.6627 7.93575L15.5877 7.78184L15.4974 7.63168L15.4074 7.48522L15.306 7.34638L15.1973 7.21117L15.0844 7.07978L14.9679 6.95585L14.8404 6.83938L14.7129 6.72674L14.5777 6.61796L14.4351 6.52019L14.2886 6.42624L14.1383 6.34004L13.9844 6.261L13.8269 6.18967L13.6616 6.12604L13.4965 6.06961L13.3238 6.02085L13.1511 5.97954L12.9746 5.94952L12.7946 5.92694L12.6103 5.91182L12.4264 5.9082L12.2425 5.91182L12.0624 5.92694L11.8821 5.94952L11.7058 5.97954L11.5329 6.02085L11.3603 6.06961L11.1949 6.12604L11.0336 6.18967L10.8758 6.261L10.7219 6.34004L10.5718 6.42624L10.4254 6.52019L10.2866 6.61796L10.1511 6.72674L10.0198 6.83938L9.89613 6.95585L9.77579 7.07978L9.66707 7.21117L9.55802 7.34638L9.46048 7.48522L9.36662 7.63168L9.28043 7.78184L9.2014 7.93575L9.13011 8.09358L9.06621 8.25494L9.01005 8.42409L8.96134 8.59287L8.91974 8.76586L8.89 8.94209L8.86736 9.11859L8.85229 9.3026L8.84845 9.48684L8.85229 9.67056L8.86736 9.85475L8.89 10.0311L8.91974 10.2115L8.96134 10.3841L9.01005 10.5533L9.06621 10.7221L9.13011 10.8837L9.2014 11.0451L9.28043 11.1991L9.36662 11.3492L9.46048 11.4957L9.55802 11.6345L9.66707 11.7697L9.77579 11.9011L9.89613 12.025L10.0198 12.1454L10.1511 12.258L10.2866 12.3632L10.4254 12.4645L10.5718 12.5582L10.7219 12.6447L10.8758 12.7235L11.0336 12.7951L11.1949 12.8587L11.3603 12.919L11.5329 12.9639L11.7058 13.0052L11.8821 13.0352L12.0624 13.0616L12.2425 13.0729L12.4264 13.0765Z" fill="#FBB230"/>
<path fill-rule="evenodd" clip-rule="evenodd" d="M7.63211 13.0765L7.81606 13.0729L7.99612 13.0616L8.17652 13.0352L8.35274 13.0052L8.52563 12.9639L8.69852 12.919L8.86351 12.8587L9.02483 12.7951L9.18265 12.7235L9.33652 12.6447L9.48666 12.5582L9.63308 12.4645L9.77188 12.3632L9.90735 12.258L10.0387 12.1454L10.1623 12.025L10.2827 11.9011L10.3916 11.7697L10.5005 11.6345L10.598 11.4957L10.6918 11.3492L10.778 11.1991L10.857 11.0451L10.9284 10.8837L10.9922 10.7221L11.0484 10.5533L11.0974 10.3841L11.1387 10.2115L11.1685 10.0311L11.191 9.85475L11.2062 9.67056L11.21 9.48684L11.2062 9.3026L11.191 9.11859L11.1685 8.94209L11.1387 8.76586L11.0974 8.59287L11.0484 8.42409L10.9922 8.25494L10.9284 8.09358L10.857 7.93575L10.778 7.78184L10.6918 7.63168L10.598 7.48522L10.5005 7.34638L10.3916 7.21117L10.2827 7.07978L10.1623 6.95585L10.0387 6.83938L9.90735 6.72674L9.77188 6.61796L9.63308 6.52019L9.48666 6.42624L9.33652 6.34004L9.18265 6.261L9.02483 6.18967L8.86351 6.12604L8.69852 6.06961L8.52563 6.02085L8.35274 5.97954L8.17652 5.94952L7.99612 5.92694L7.81606 5.91182L7.63211 5.9082L7.44821 5.91182L7.26403 5.92694L7.08391 5.94952L6.90746 5.97954L6.73503 6.02085L6.56214 6.06961L6.39692 6.12604L6.23171 6.18967L6.07417 6.261L5.9203 6.34004L5.76992 6.42624L5.62375 6.52019L5.48107 6.61796L5.34568 6.72674L5.21815 6.83938L5.09063 6.95585L4.97418 7.07978L4.86126 7.21117L4.75256 7.34638L4.65122 7.48522L4.56113 7.63168L4.47086 7.78184L4.39592 7.93575L4.32077 8.09358L4.2569 8.25494L4.20074 8.42409L4.15169 8.59287L4.11431 8.76586L4.08038 8.94209L4.0581 9.11859L4.04295 9.3026L4.03937 9.48684L4.04295 9.67056L4.0581 9.85475L4.08038 10.0311L4.11431 10.2115L4.15169 10.3841L4.20074 10.5533L4.2569 10.7221L4.32077 10.8837L4.39592 11.0451L4.47086 11.1991L4.56113 11.3492L4.65122 11.4957L4.75256 11.6345L4.86126 11.7697L4.97418 11.9011L5.09063 12.025L5.21815 12.1454L5.34568 12.258L5.48107 12.3632L5.62375 12.4645L5.76992 12.5582L5.9203 12.6447L6.07417 12.7235L6.23171 12.7951L6.39692 12.8587L6.56214 12.919L6.73503 12.9639L6.90746 13.0052L7.08391 13.0352L7.26403 13.0616L7.44821 13.0729L7.63211 13.0765Z" fill="#EB2230"/>
<path fill-rule="evenodd" clip-rule="evenodd" d="M9.61066 7.28246H11.5143V7.08716H9.77587L9.61066 7.28246Z" fill="#FBB230"/>
<path fill-rule="evenodd" clip-rule="evenodd" d="M9.32599 7.71435H11.5149V7.51904H9.43865L9.32599 7.71435Z" fill="#FBB230"/>
<path fill-rule="evenodd" clip-rule="evenodd" d="M9.11176 8.14647H11.5146V7.95117H9.19817L9.11176 8.14647Z" fill="#FBB230"/>
<path fill-rule="evenodd" clip-rule="evenodd" d="M8.96527 8.57791H11.5146V8.38647H9.02527L8.96527 8.57791Z" fill="#FBB230"/>
<path fill-rule="evenodd" clip-rule="evenodd" d="M9.0508 10.6735H11.5213V10.4783H8.99103L9.0508 10.6735Z" fill="#FBB230"/>
<path fill-rule="evenodd" clip-rule="evenodd" d="M9.23145 11.1054H11.5216V10.9102H9.14142L9.23145 11.1054Z" fill="#FBB230"/>
<path fill-rule="evenodd" clip-rule="evenodd" d="M9.49041 11.5371H11.5215V11.3418H9.36652L9.49041 11.5371Z" fill="#FBB230"/>
<path fill-rule="evenodd" clip-rule="evenodd" d="M9.84387 11.969H11.522V11.7737H9.6712L9.84387 11.969Z" fill="#FBB230"/>
<path fill-rule="evenodd" clip-rule="evenodd" d="M8.87872 9.00997H11.5143V8.81836H8.9162L8.87872 9.00997Z" fill="#FBB230"/>
<path fill-rule="evenodd" clip-rule="evenodd" d="M10.4852 10.2416H11.4914V10.0464H10.5229L10.4852 10.2416Z" fill="#FBB230"/>
<path fill-rule="evenodd" clip-rule="evenodd" d="M10.5644 9.80956H11.4918V9.61426H10.6021L10.5644 9.80956Z" fill="#FBB230"/>
<path fill-rule="evenodd" clip-rule="evenodd" d="M8.81146 9.61426H9.07421V9.80956H8.82671L8.81146 9.61426Z" fill="#FBB230"/>
<path fill-rule="evenodd" clip-rule="evenodd" d="M15.6746 11.5068C15.7685 11.5068 15.8436 11.5856 15.8436 11.6756C15.8436 11.7696 15.7685 11.8447 15.6746 11.8447C15.5807 11.8447 15.5058 11.7696 15.5058 11.6756C15.5058 11.5856 15.5807 11.5068 15.6746 11.5068ZM15.6746 11.5368C15.7536 11.5368 15.8172 11.6007 15.8172 11.6756C15.8172 11.7547 15.7536 11.8185 15.6746 11.8185C15.5997 11.8185 15.5355 11.7547 15.5355 11.6756C15.5355 11.6007 15.5997 11.5368 15.6746 11.5368Z" fill="#FBB230"/>
<path d="M15.6108 11.751V11.6084H15.6707C15.6856 11.6084 15.6969 11.6084 15.7046 11.6122C15.7118 11.6158 15.7159 11.6197 15.7194 11.6233C15.7231 11.631 15.7269 11.6384 15.7269 11.6459C15.7269 11.6572 15.7231 11.6684 15.7194 11.6723C15.7118 11.6797 15.7007 11.6836 15.6892 11.6871C15.6969 11.691 15.7007 11.6949 15.7045 11.6984C15.7081 11.7023 15.7158 11.7097 15.7194 11.721L15.7382 11.751H15.7045L15.6817 11.7172C15.6778 11.7059 15.6706 11.7023 15.6668 11.6985C15.6668 11.6949 15.663 11.6949 15.6593 11.691C15.6555 11.691 15.6517 11.691 15.6442 11.691H15.6404V11.751H15.6108ZM15.6405 11.6684H15.6595C15.6743 11.6684 15.6818 11.6684 15.6857 11.6648C15.6892 11.6648 15.6934 11.6648 15.6934 11.6609C15.697 11.6572 15.697 11.6536 15.697 11.6497C15.697 11.6458 15.697 11.6422 15.6934 11.6384C15.6892 11.6345 15.6857 11.6345 15.6818 11.6309C15.6818 11.6309 15.6744 11.6309 15.6631 11.6309H15.6406V11.6684H15.6405Z" fill="#FBB230"/>
<path fill-rule="evenodd" clip-rule="evenodd" d="M15.6364 10.0952C15.7302 10.0952 15.8052 10.1703 15.8052 10.2643C15.8052 10.3582 15.7302 10.4332 15.6364 10.4332C15.5425 10.4332 15.4676 10.3582 15.4676 10.2643C15.4676 10.1703 15.5425 10.0952 15.6364 10.0952ZM15.6364 10.1252C15.7154 10.1252 15.7791 10.189 15.7791 10.2643C15.7791 10.343 15.7154 10.4069 15.6364 10.4069C15.5574 10.4069 15.4937 10.343 15.4937 10.2643C15.4937 10.1891 15.5573 10.1252 15.6364 10.1252Z" fill="white"/>
<path d="M15.5726 10.3354V10.1963H15.6326C15.6477 10.1963 15.659 10.1963 15.6665 10.2001C15.6703 10.2001 15.6774 10.2076 15.6813 10.2114C15.6852 10.2189 15.6887 10.2263 15.6887 10.2341C15.6887 10.2453 15.6852 10.2527 15.6774 10.2601C15.6739 10.2676 15.6627 10.2714 15.6514 10.2753C15.6552 10.2789 15.6627 10.2828 15.6665 10.2866C15.6703 10.2902 15.6739 10.2977 15.6813 10.309L15.7003 10.3354H15.6664L15.6438 10.3053C15.6364 10.2941 15.6326 10.2866 15.6287 10.2866C15.6251 10.2828 15.6251 10.2789 15.6215 10.2789C15.6174 10.2789 15.6138 10.2789 15.6064 10.2789H15.5989V10.3354L15.5726 10.3354ZM15.599 10.2566H15.6216C15.6364 10.2566 15.6439 10.2566 15.6477 10.2528C15.6514 10.2528 15.6552 10.2489 15.6552 10.2489C15.659 10.2453 15.659 10.2414 15.659 10.2376C15.659 10.2341 15.6552 10.2263 15.6552 10.2263C15.6514 10.2228 15.6477 10.2189 15.6439 10.2189C15.6401 10.2189 15.6326 10.2189 15.6216 10.2189H15.599L15.599 10.2566Z" fill="white"/>
<path fill-rule="evenodd" clip-rule="evenodd" d="M13.2231 10.3615L13.467 9.08496H13.771L13.8088 9.21631C13.865 9.15986 13.9588 9.08496 14.1466 9.08496L14.0527 9.4229C13.9701 9.4229 13.8423 9.40777 13.7375 9.65556C13.6587 9.84341 13.621 10.1549 13.5796 10.3615H13.2231Z" fill="white"/>
<path fill-rule="evenodd" clip-rule="evenodd" d="M8.61975 8.76587H8.95735L8.88239 9.10376H9.07018L9.01379 9.36657H8.84497L8.75104 9.87356C8.73236 9.96749 8.75104 10.0614 8.93884 10.0236L8.90142 10.3054C8.69872 10.4593 8.29293 10.3467 8.35677 9.96749L8.61975 8.76587Z" fill="white"/>
<path fill-rule="evenodd" clip-rule="evenodd" d="M10.1256 9.79826C10.163 9.59172 10.257 9.08496 9.65256 9.08496C9.08952 9.08496 9.01433 9.64817 9.01433 9.72307C8.99582 9.79826 8.99582 10.3615 9.59634 10.3615C9.74642 10.3615 9.9568 10.3427 10.0507 10.3052L10.1069 10.0423C10.0507 10.0612 9.85909 10.08 9.709 10.08C9.57766 10.08 9.35244 10.08 9.38986 9.7982L10.1256 9.79826Z" fill="white"/>
<path fill-rule="evenodd" clip-rule="evenodd" d="M6.0292 10.3616L6.3296 8.82202H5.74391L5.33085 9.76088L5.25571 8.82202H4.71138L4.41095 10.3616H4.74881L4.9743 9.25388L5.06819 10.3616H5.38731L5.87527 9.27262L5.66871 10.3616H6.0292Z" fill="white"/>
<path fill-rule="evenodd" clip-rule="evenodd" d="M6.42289 9.12249L6.36667 9.40426C6.4606 9.40426 6.68576 9.36655 6.79836 9.36655C6.91103 9.36655 7.06111 9.34787 7.00495 9.53567C6.91103 9.53567 6.29143 9.44174 6.19756 9.98621C6.14524 10.3467 6.57315 10.4781 6.83584 10.3054L6.87349 10.3804H7.1924L7.32398 9.68569C7.46283 9.05859 6.85848 9.0473 6.42289 9.12249Z" fill="white"/>
<path fill-rule="evenodd" clip-rule="evenodd" d="M12.0135 9.23524C11.9271 9.18257 11.8745 9.18257 11.7657 9.18257C11.6605 9.18257 11.4127 9.28779 11.3788 9.56928C11.3262 9.92234 11.5553 10.0802 11.8894 9.97495L11.9797 10.2754C11.4091 10.5607 10.8644 10.1176 11.0447 9.42664C11.191 8.9047 11.8819 8.58939 12.2275 9.0212L12.0135 9.23524Z" fill="white"/>
<path fill-rule="evenodd" clip-rule="evenodd" d="M14.9906 9.23535C14.0706 8.54431 13.7138 10.3618 14.4272 10.3618C14.5398 10.3618 14.6527 10.3056 14.7276 10.2678L14.7651 10.3618H15.1407L15.4411 8.74707H15.0843L14.9906 9.23535Z" fill="white"/>
<path fill-rule="evenodd" clip-rule="evenodd" d="M12.2837 9.12249L12.2275 9.40426C12.3211 9.40426 12.5467 9.36655 12.659 9.36655C12.7719 9.36655 12.9032 9.34787 12.8657 9.53567C12.7719 9.53567 12.1524 9.44174 12.0588 9.98621C12.0207 10.249 12.2463 10.3804 12.4153 10.3804C12.5841 10.3804 12.6405 10.3429 12.6967 10.3054L12.7342 10.3804H13.0535L13.1848 9.68569C13.3276 9.05859 12.7229 9.0473 12.2837 9.12249Z" fill="white"/>
<path fill-rule="evenodd" clip-rule="evenodd" d="M9.38947 9.5544H9.82121C9.86998 9.21262 9.46075 9.2803 9.38947 9.5544Z" fill="#EB2230"/>
<path fill-rule="evenodd" clip-rule="evenodd" d="M6.94927 9.7984C6.89283 9.7984 6.76148 9.76092 6.64858 9.83611C6.53626 9.91101 6.49856 10.0424 6.63007 10.0801C6.74245 10.1175 6.89283 10.0424 6.93025 9.92975L6.94927 9.7984Z" fill="#EB2230"/>
<path fill-rule="evenodd" clip-rule="evenodd" d="M14.8221 9.4418C14.7095 9.29143 14.4655 9.40438 14.3903 9.68581C14.3342 9.87361 14.4468 10.005 14.5594 10.005C14.796 10.0051 14.9386 9.61836 14.8221 9.4418Z" fill="#FBB230"/>
<path fill-rule="evenodd" clip-rule="evenodd" d="M12.8289 9.7984C12.7728 9.7984 12.6414 9.76092 12.5285 9.83611C12.4161 9.91101 12.3784 10.0424 12.51 10.0801C12.6224 10.1175 12.7915 10.0424 12.8102 9.92975L12.8289 9.7984Z" fill="#FBB230"/>
<path fill-rule="evenodd" clip-rule="evenodd" d="M10.1253 10.3803L10.1443 10.2489L10.3695 9.10376H10.6697L10.7071 9.23516C10.7636 9.17872 10.8575 9.10376 11.0452 9.10376L10.9513 9.4417C10.88 9.4417 10.7297 9.42657 10.6171 9.72703C10.5532 9.89975 10.5157 10.1928 10.4819 10.3803H10.1253Z" fill="white"/>
<path fill-rule="evenodd" clip-rule="evenodd" d="M8.30826 9.41184H8.29308H8.27824L8.26339 9.408L8.24826 9.40439H8.23314L8.21824 9.40049C8.15056 9.3931 8.09434 9.3892 8.02689 9.3931C7.854 9.40794 7.7791 9.51671 7.92534 9.59935C8.04179 9.66708 8.13205 9.65574 8.21056 9.73098C8.37967 9.88857 8.29319 10.1928 8.1054 10.3091L8.07182 10.3242L8.03434 10.3393L7.99308 10.3504L7.95566 10.3616C7.77531 10.3917 7.53136 10.3842 7.3548 10.3242L7.40357 10.0725C7.5462 10.1025 7.77915 10.1664 7.88792 10.0915C8.01187 10.0089 7.89921 9.9111 7.80889 9.86984L7.76402 9.85488L7.71915 9.8362C7.3623 9.67448 7.44517 9.24267 7.78276 9.15264C7.91795 9.12261 8.05314 9.12261 8.19216 9.1339H8.21829C8.25222 9.13751 8.28225 9.14141 8.31222 9.1488H8.32712L8.33841 9.15264H8.3497L8.35709 9.15648H8.36838L8.30826 9.41184Z" fill="white"/>
</g>
</g>
<g clip-path="url(#clip1_1_1004)">
<path d="M38.0604 20C43.5832 20 48.0604 15.5228 48.0604 10C48.0604 4.47715 43.5832 0 38.0604 0C32.5375 0 28.0604 4.47715 28.0604 10C28.0604 15.5228 32.5375 20 38.0604 20Z" fill="#26A17B"/>
<path d="M43.526 7.66625C43.0266 7.31187 42.4922 6.93375 41.9697 6.55875C41.9579 6.55 41.9466 6.54125 41.9322 6.5325C41.871 6.48222 41.8017 6.4427 41.7272 6.41562L41.721 6.4125C40.3229 6.06943 38.9252 5.72484 37.5279 5.37875L33.7879 4.45562L33.6897 4.42937C33.5772 4.3975 33.4472 4.36187 33.3085 4.37937C33.2705 4.3852 33.2342 4.39928 33.2022 4.42062L33.1672 4.45C33.1234 4.49494 33.0899 4.5489 33.0691 4.60812L33.0604 4.63187V4.76625L33.0666 4.78687C33.8541 7.0275 34.6629 9.30062 35.4429 11.5C36.0435 13.1937 36.6679 14.9475 37.2766 16.67C37.3141 16.7869 37.421 16.8638 37.5541 16.875H37.5829C37.641 16.8765 37.6985 16.8623 37.7493 16.8339C37.8001 16.8056 37.8424 16.7641 37.8716 16.7138L40.1591 13.3306C40.716 12.5075 41.2735 11.6819 41.831 10.8587L42.5154 9.845C42.8904 9.28875 43.2779 8.71438 43.6622 8.155L43.6822 8.12625V8.09062C43.691 7.98812 43.6935 7.77812 43.526 7.66625ZM40.846 8.89937C40.3085 9.18313 39.7604 9.47625 39.2085 9.76625L40.1735 8.7175C40.5747 8.27812 40.9935 7.82375 41.4035 7.37875L41.4122 7.37C41.4466 7.32312 41.4904 7.27937 41.5366 7.2325C41.5679 7.20062 41.6029 7.16812 41.6347 7.13C41.8485 7.28 42.0647 7.43187 42.2729 7.58125C42.4229 7.68937 42.576 7.79812 42.7322 7.90625C42.1013 8.23312 41.4725 8.56417 40.846 8.89937ZM39.466 8.75875C39.0529 9.2125 38.6254 9.67812 38.201 10.1381C37.3774 9.12469 36.5513 8.11323 35.7229 7.10375L34.611 5.7475L34.6085 5.74437C34.5247 5.64812 34.4435 5.5425 34.3629 5.44312C34.311 5.37562 34.256 5.31125 34.201 5.24375C34.536 5.33125 34.8741 5.41375 35.206 5.4925C35.4979 5.56312 35.801 5.63625 36.0985 5.7125L41.1266 6.95125C40.5691 7.555 40.0085 8.16687 39.466 8.75875ZM38.0129 14.4675C38.0447 14.16 38.0797 13.8438 38.1085 13.5331C38.1347 13.2837 38.1604 13.0294 38.1866 12.7863C38.2266 12.3962 38.2704 11.9925 38.3054 11.5969L38.3135 11.5269C38.3422 11.2744 38.371 11.0144 38.3885 10.7531C38.4221 10.7341 38.457 10.7174 38.4929 10.7031C38.536 10.6831 38.5791 10.6656 38.6222 10.6394C39.2893 10.2839 39.9574 9.93031 40.6266 9.57875C41.2941 9.2275 41.9785 8.86375 42.6572 8.50375C42.0414 9.40828 41.428 10.3145 40.8172 11.2225C40.3004 11.9862 39.7691 12.7744 39.2404 13.5506C39.0329 13.8612 38.816 14.1775 38.611 14.4819C38.3797 14.8219 38.1429 15.17 37.9122 15.5194C37.941 15.1675 37.9754 14.8131 38.0129 14.4675ZM33.9879 5.935C33.9504 5.82937 33.9091 5.72125 33.8747 5.61875C34.6547 6.57375 35.4397 7.53437 36.2054 8.46562C36.601 8.94875 36.9966 9.42937 37.3922 9.91562C37.4704 10.0062 37.5485 10.1031 37.6235 10.1969C37.7216 10.3169 37.8197 10.4431 37.9266 10.5631C37.8916 10.8644 37.8629 11.1694 37.831 11.4619C37.811 11.6669 37.791 11.8725 37.7679 12.0806V12.0831C37.7591 12.2144 37.7416 12.3469 37.7272 12.4756L37.661 13.0587L37.6579 13.0787C37.606 13.6706 37.5422 14.2681 37.4816 14.8481C37.456 15.0881 37.4329 15.3344 37.4066 15.5806C37.3922 15.5369 37.3754 15.4925 37.3604 15.4513C37.3163 15.3319 37.274 15.2119 37.2335 15.0913L36.9241 14.2212L33.9872 5.935" fill="white"/>
</g>
<g clip-path="url(#clip2_1_1004)">
<path d="M66.0601 20C71.583 20 76.0601 15.5228 76.0601 10C76.0601 4.47717 71.583 0 66.0601 0C60.5373 0 56.0601 4.47717 56.0601 10C56.0601 15.5228 60.5373 20 66.0601 20Z" fill="#8DC351"/>
<path d="M70.7435 8.30652C70.2702 8.06652 69.7002 8.01652 69.0402 8.15986C69.6102 7.41652 69.6302 6.60319 69.1002 5.72652C68.9102 5.40652 68.6802 5.15986 68.4068 4.98986C68.1335 4.81652 67.8335 4.71986 67.4968 4.69652C67.1635 4.67319 66.8202 4.69652 66.4768 4.76319C66.1302 4.83319 65.7502 4.94319 65.3335 5.09986L64.4202 3.18652L63.2502 3.74319L64.1368 5.60319C63.9335 5.69986 63.6268 5.85319 63.2168 6.05986L62.3235 4.18319L61.1535 4.73986L62.0668 6.65319C61.9035 6.73652 61.6568 6.85652 61.3335 7.01319L59.7202 7.77319L60.3135 9.01986L61.1568 8.61652C61.5402 8.43319 61.8502 8.49652 62.0802 8.80986L63.1202 10.9899C63.1702 10.9665 63.2135 10.9499 63.2468 10.9399L63.1268 10.9965L64.5835 14.0499C64.6668 14.3265 64.5802 14.5265 64.3268 14.6465L63.4835 15.0499L63.9102 16.5532L65.4302 15.8299C65.5268 15.7832 65.6668 15.7199 65.8502 15.6332C66.0335 15.5499 66.1702 15.4865 66.2635 15.4399L67.1868 17.3765L68.3568 16.8199L67.4435 14.9065C67.6602 14.8099 67.9702 14.6665 68.3735 14.4732L69.2835 16.3799L70.4535 15.8232L69.5302 13.8865C69.9368 13.6699 70.2868 13.4532 70.5802 13.2465C70.8735 13.0365 71.1402 12.8032 71.3768 12.5432C71.6135 12.2832 71.7868 12.0199 71.9002 11.7465C72.0135 11.4765 72.0702 11.1732 72.0668 10.8365C72.0668 10.5032 71.9968 10.1465 71.8602 9.76986C71.5902 9.03319 71.2202 8.54319 70.7435 8.30652ZM63.8968 7.41319C63.9335 7.39652 64.0302 7.34652 64.1935 7.26652C64.3568 7.18652 64.4935 7.11652 64.6002 7.06319C64.7068 7.00986 64.8568 6.94652 65.0502 6.87319C65.2435 6.79986 65.4068 6.74652 65.5468 6.70986C65.6868 6.67319 65.8435 6.64986 66.0235 6.63652C66.2035 6.62319 66.3568 6.63652 66.4902 6.67652C66.6202 6.71652 66.7502 6.78652 66.8735 6.88652C66.9968 6.98652 67.1002 7.11986 67.1802 7.28652C67.2468 7.42986 67.2868 7.56986 67.2968 7.70652C67.3068 7.84319 67.2835 7.97319 67.2302 8.09652C67.1768 8.21986 67.1168 8.33319 67.0468 8.43652C66.9768 8.53986 66.8768 8.64652 66.7468 8.75319C66.6135 8.85986 66.4968 8.94986 66.3968 9.02319C66.2935 9.09652 66.1635 9.17652 66.0002 9.26319C65.8368 9.34986 65.7135 9.41652 65.6268 9.45986C65.5435 9.50319 65.4235 9.55986 65.2735 9.62986C65.1235 9.69986 65.0335 9.73986 65.0102 9.74986L63.8968 7.41319ZM69.5568 11.0632C69.5635 11.2032 69.5502 11.3332 69.5168 11.4565C69.4802 11.5799 69.4168 11.7032 69.3268 11.8265C69.2335 11.9532 69.1402 12.0632 69.0435 12.1565C68.9468 12.2532 68.8235 12.3565 68.6735 12.4632C68.5235 12.5732 68.3902 12.6632 68.2702 12.7332C68.1535 12.8065 68.0102 12.8865 67.8402 12.9765C67.6702 13.0665 67.5402 13.1332 67.4435 13.1799C67.3468 13.2265 67.2235 13.2832 67.0768 13.3499C66.9302 13.4165 66.8335 13.4599 66.7935 13.4799L65.5702 10.9132C65.6102 10.8932 65.7302 10.8332 65.9268 10.7332C66.1235 10.6332 66.2868 10.5532 66.4135 10.4932C66.5402 10.4332 66.7168 10.3565 66.9468 10.2665C67.1768 10.1765 67.3735 10.1099 67.5402 10.0665C67.7068 10.0232 67.8935 9.99319 68.1035 9.96986C68.3135 9.94652 68.4968 9.95652 68.6502 9.99319C68.8035 10.0299 68.9535 10.1032 69.0968 10.2099C69.2402 10.3165 69.3568 10.4599 69.4435 10.6399C69.5135 10.7832 69.5502 10.9232 69.5568 11.0632Z" fill="white"/>
</g>
<g clip-path="url(#clip3_1_1004)">
<path d="M94.0601 20C99.583 20 104.06 15.5228 104.06 10C104.06 4.47715 99.583 0 94.0601 0C88.5373 0 84.0601 4.47715 84.0601 10C84.0601 15.5228 88.5373 20 94.0601 20Z" fill="#EB0029"/>
<path fill-rule="evenodd" clip-rule="evenodd" d="M89.5391 5.35789C89.6308 5.60145 93.4983 15.3033 93.5074 15.3125C93.5179 15.323 99.0462 8.61722 99.0601 8.57708C99.0671 8.557 97.1386 6.72706 97.0878 6.7055C97.0664 6.69643 95.3695 6.38145 93.317 6.00553C91.2643 5.62961 89.5704 5.31867 89.5525 5.31458C89.5249 5.30823 89.5229 5.31475 89.5391 5.35789ZM93.6786 6.60615C95.1663 6.87897 96.3835 7.10801 96.3835 7.11515C96.3835 7.12834 94.3661 8.80747 94.3031 8.84673C94.2737 8.86508 94.0367 8.6762 92.6212 7.50604C90.747 5.95672 90.9315 6.11126 90.9553 6.11061C90.9653 6.11034 92.1908 6.33333 93.6786 6.60615ZM92.3178 7.93618C93.5376 8.94626 94.0433 9.37615 94.0385 9.39878C94.0347 9.41639 93.9136 10.4137 93.7695 11.6151C93.6253 12.8164 93.503 13.8122 93.4978 13.8278C93.4926 13.8435 92.8327 12.211 92.0314 10.2002C91.2301 8.18936 90.5696 6.53211 90.5637 6.51743C90.5577 6.50275 90.5612 6.49409 90.5715 6.49819C90.5817 6.50226 91.3676 7.14937 92.3178 7.93618ZM97.5663 7.86534C97.8814 8.16337 98.1358 8.41047 98.1318 8.4145C98.1191 8.42712 95.0444 8.97947 95.0168 8.97408C94.9934 8.9695 96.953 7.32351 96.9819 7.32351C96.9883 7.32351 97.2514 7.56734 97.5663 7.86534ZM98.0205 9.01704C97.9304 9.14803 94.0394 13.8579 94.0357 13.8403C94.0332 13.8283 94.1463 12.8703 94.287 11.7113L94.5427 9.604L96.2491 9.29308C97.1876 9.12204 97.976 8.98133 98.0012 8.98034C98.043 8.9787 98.0446 8.98189 98.0205 9.01704Z" fill="white"/>
</g>
<g clip-path="url(#clip4_1_1004)">
<path d="M122.06 20C127.583 20 132.06 15.5228 132.06 10C132.06 4.47717 127.583 0 122.06 0C116.537 0 112.06 4.47717 112.06 10C112.06 15.5228 116.537 20 122.06 20Z" fill="url(#paint0_linear_1_1004)"/>
<path d="M122.06 12.12L118.223 10.2966L122.06 17L125.897 10.2966L122.06 12.12Z" fill="white"/>
<path d="M125.477 8.93667L122.06 3L118.637 8.94333L122.06 7.32L125.477 8.93667Z" fill="white"/>
<path d="M118.933 9.71331L122.06 11.1933L125.19 9.70998L122.06 8.22998L118.933 9.71331Z" fill="white"/>
</g>
<g clip-path="url(#clip5_1_1004)">
<path d="M150.029 0.0419922L152.489 2.56111L146.295 8.75517L143.835 6.29533L150.029 0.0419922Z" fill="#F0B90B" stroke="#F0B90B" stroke-width="0.0592733"/>
<path d="M153.763 3.77637L156.223 6.29548L146.295 16.2238L143.835 13.7639L153.763 3.77637Z" fill="#F0B90B" stroke="#F0B90B" stroke-width="0.0592733"/>
<path d="M142.561 7.51074L145.021 10.0299L142.561 12.4897L140.101 10.0299L142.561 7.51074Z" fill="#F0B90B" stroke="#F0B90B" stroke-width="0.0592733"/>
<path d="M157.498 7.51074L159.958 10.0299L150.029 19.9581L147.569 17.4983L157.498 7.51074Z" fill="#F0B90B" stroke="#F0B90B" stroke-width="0.0592733"/>
</g>
<defs>
<linearGradient id="paint0_linear_1_1004" x1="122.06" y1="0" x2="122.06" y2="20" gradientUnits="userSpaceOnUse">
<stop stop-color="#4A819F"/>
<stop offset="1" stop-color="#034681"/>
</linearGradient>
<clipPath id="clip0_1_1004">
<rect width="20" height="12.4928" fill="white" transform="translate(0.0601196 3.2251)"/>
</clipPath>
<clipPath id="clip1_1_1004">
<rect width="20" height="20" fill="white" transform="translate(28.0599)"/>
</clipPath>
<clipPath id="clip2_1_1004">
<rect width="20" height="20" fill="white" transform="translate(56.0599)"/>
</clipPath>
<clipPath id="clip3_1_1004">
<rect width="20" height="20" fill="white" transform="translate(84.0599)"/>
</clipPath>
<clipPath id="clip4_1_1004">
<rect width="20" height="20" fill="white" transform="translate(112.06)"/>
</clipPath>
<clipPath id="clip5_1_1004">
<rect width="19.9401" height="20" fill="white" transform="translate(140.06)"/>
</clipPath>
</defs>
</svg>
