<svg width="54" height="22" viewBox="0 0 54 22" fill="none" xmlns="http://www.w3.org/2000/svg">
<path d="M14.8786 5.0498C17.4352 5.0498 19.6599 6.86768 19.6599 11.1841V11.2007C19.6599 15.2349 17.842 17.6255 14.8288 17.6255C12.6291 17.6255 10.9855 16.3223 10.6037 14.4878L10.5871 14.3965H12.6955L12.7204 14.4795C13.0358 15.3179 13.7746 15.8657 14.8288 15.8657C16.7297 15.8657 17.5349 14.0063 17.6262 11.7153C17.6262 11.624 17.6345 11.5327 17.6345 11.4414H17.4684C17.0285 12.3877 15.9826 13.2261 14.3391 13.2261C12.0397 13.2261 10.4294 11.5493 10.4294 9.2749V9.2583C10.4294 6.82617 12.2805 5.0498 14.8786 5.0498ZM14.8703 11.5825C16.2233 11.5825 17.2609 10.603 17.2609 9.25V9.2334C17.2609 7.86377 16.2233 6.79297 14.8952 6.79297C13.5754 6.79297 12.5212 7.84717 12.5212 9.18359V9.2002C12.5212 10.5864 13.509 11.5825 14.8703 11.5825ZM23.0204 9.56543C22.265 9.56543 21.7006 8.98438 21.7006 8.25391C21.7006 7.51514 22.265 6.94238 23.0204 6.94238C23.7841 6.94238 24.3402 7.51514 24.3402 8.25391C24.3402 8.98438 23.7841 9.56543 23.0204 9.56543ZM23.0204 15.7246C22.265 15.7246 21.7006 15.1519 21.7006 14.4131C21.7006 13.6743 22.265 13.1016 23.0204 13.1016C23.7841 13.1016 24.3402 13.6743 24.3402 14.4131C24.3402 15.1519 23.7841 15.7246 23.0204 15.7246ZM32.1915 17.3267V15.0273H26.3312V13.2759C27.8834 10.5781 29.5851 7.82227 31.212 5.34863H34.2418V13.2593H35.8522V15.0273H34.2418V17.3267H32.1915ZM28.3233 13.3091H32.2247V7.05859H32.1002C30.8717 8.93457 29.4855 11.1509 28.3233 13.1846V13.3091ZM40.408 17.3267V7.45703H40.2669L37.2869 9.56543V7.54834L40.4163 5.34863H42.5496V17.3267H40.408Z" fill="#1D1D1F"/>
</svg>
