<svg width="20" height="13" viewBox="0 0 20 13" fill="none" xmlns="http://www.w3.org/2000/svg">
<path fill-rule="evenodd" clip-rule="evenodd" d="M19.9385 1.79175C19.9385 1.17043 19.461 0.666748 18.8719 0.666748H17.8052C17.2161 0.666748 16.7385 1.17043 16.7385 1.79175V11.5417C16.7385 12.1631 17.2161 12.6667 17.8052 12.6667H18.8719C19.461 12.6667 19.9385 12.1631 19.9385 11.5417V1.79175ZM12.5052 3.06675H13.5719C14.161 3.06675 14.6385 3.58252 14.6385 4.21875V11.5147C14.6385 12.151 14.161 12.6667 13.5719 12.6667H12.5052C11.9161 12.6667 11.4385 12.151 11.4385 11.5147V4.21875C11.4385 3.58252 11.9161 3.06675 12.5052 3.06675ZM8.17186 5.66675H7.10519C6.51609 5.66675 6.03853 6.18908 6.03853 6.83341V11.5001C6.03853 12.1444 6.51609 12.6667 7.10519 12.6667H8.17186C8.76096 12.6667 9.23853 12.1444 9.23853 11.5001V6.83341C9.23853 6.18908 8.76096 5.66675 8.17186 5.66675ZM2.87186 8.06675H1.80519C1.21609 8.06675 0.738525 8.58162 0.738525 9.21675V11.5167C0.738525 12.1519 1.21609 12.6667 1.80519 12.6667H2.87186C3.46096 12.6667 3.93853 12.1519 3.93853 11.5167V9.21675C3.93853 8.58162 3.46096 8.06675 2.87186 8.06675Z" fill="black"/>
</svg>
