<svg width="19" height="32" viewBox="0 0 19 32" fill="none" xmlns="http://www.w3.org/2000/svg">
<path d="M7.84135 0.187999H11.5133L11.3773 6.002H7.97735L7.84135 0.187999ZM7.97735 26.062H11.3773L11.5133 31.808H7.84135L7.97735 26.062ZM14.1313 11.102C13.7913 10.4447 13.406 9.85533 12.9753 9.334C12.5673 8.81267 12.0913 8.40467 11.5473 8.11C11.026 7.79267 10.414 7.634 9.71135 7.634C9.00868 7.634 8.43068 7.74733 7.97735 7.974C7.52401 8.178 7.18401 8.46133 6.95735 8.824C6.75335 9.18667 6.65135 9.62867 6.65135 10.15C6.65135 10.8753 6.90068 11.4647 7.39935 11.918C7.92068 12.3713 8.60068 12.768 9.43935 13.108C10.278 13.4253 11.1733 13.7653 12.1253 14.128C12.8733 14.4 13.5987 14.74 14.3013 15.148C15.0267 15.556 15.684 16.0433 16.2733 16.61C16.8627 17.1767 17.3273 17.8567 17.6673 18.65C18.0073 19.4207 18.1773 20.3387 18.1773 21.404C18.1773 22.832 17.826 24.0673 17.1233 25.11C16.4433 26.1527 15.4687 26.9573 14.1993 27.524C12.93 28.068 11.4113 28.34 9.64335 28.34C8.23801 28.34 6.92335 28.068 5.69935 27.524C4.47535 26.9573 3.39868 26.2093 2.46935 25.28C1.54001 24.3507 0.826013 23.308 0.327346 22.152L3.89735 19.738C4.41868 20.7353 4.96268 21.574 5.52935 22.254C6.09601 22.934 6.73068 23.4553 7.43335 23.818C8.13601 24.158 8.92935 24.328 9.81335 24.328C10.5387 24.328 11.1393 24.226 11.6153 24.022C12.114 23.7953 12.4767 23.478 12.7033 23.07C12.9527 22.6393 13.0773 22.118 13.0773 21.506C13.0773 20.758 12.8393 20.146 12.3633 19.67C11.8873 19.1713 11.264 18.7407 10.4933 18.378C9.72268 18.0153 8.87268 17.664 7.94335 17.324C7.35401 17.12 6.69668 16.8367 5.97135 16.474C5.24601 16.1113 4.55468 15.6467 3.89735 15.08C3.24001 14.5133 2.69601 13.822 2.26535 13.006C1.85735 12.19 1.65335 11.2153 1.65335 10.082C1.65335 8.94867 1.99335 7.91733 2.67335 6.988C3.35335 6.036 4.29401 5.27667 5.49535 4.71C6.69668 4.14333 8.05668 3.86 9.57535 3.86C11.1167 3.86 12.42 4.10933 13.4853 4.608C14.5507 5.084 15.4347 5.70733 16.1373 6.478C16.8627 7.24867 17.4293 8.05333 17.8373 8.892L14.1313 11.102Z" fill="white"/>
</svg>

