<svg width="49" height="48" viewBox="0 0 49 48" fill="none" xmlns="http://www.w3.org/2000/svg">
<rect x="0.826721" width="48" height="48" rx="24" fill="#F7F7F7"/>
<g clip-path="url(#clip0_1_824)">
<path d="M24.8267 23C27.0359 23 28.8267 21.2091 28.8267 19C28.8267 16.7909 27.0359 15 24.8267 15C22.6176 15 20.8267 16.7909 20.8267 19C20.8267 21.2091 22.6176 23 24.8267 23Z" stroke="#939199" stroke-width="1.5" stroke-linecap="round" stroke-linejoin="round"/>
<path d="M18.8267 33V31C18.8267 29.9391 19.2481 28.9217 19.9983 28.1716C20.7484 27.4214 21.7659 27 22.8267 27H26.8267C27.8876 27 28.905 27.4214 29.6551 28.1716C30.4053 28.9217 30.8267 29.9391 30.8267 31V33" stroke="#939199" stroke-width="1.5" stroke-linecap="round" stroke-linejoin="round"/>
</g>
<defs>
<clipPath id="clip0_1_824">
<rect width="24" height="24" fill="white" transform="translate(12.8267 12)"/>
</clipPath>
</defs>
</svg>
