<svg width="18" height="13" viewBox="0 0 18 13" fill="none" xmlns="http://www.w3.org/2000/svg">
<path fill-rule="evenodd" clip-rule="evenodd" d="M8.83909 3.06735C11.3056 3.06745 13.6779 3.96498 15.4655 5.57443C15.6001 5.69869 15.8153 5.69712 15.9478 5.57092L17.2346 4.3411C17.3017 4.27709 17.3392 4.19038 17.3386 4.10017C17.3381 4.00996 17.2996 3.92367 17.2316 3.86041C12.5397 -0.397806 5.1377 -0.397806 0.445786 3.86041C0.37782 3.92363 0.339258 4.00988 0.338631 4.1001C0.338004 4.19031 0.375365 4.27704 0.442447 4.3411L1.72959 5.57092C1.86208 5.69731 2.07741 5.69888 2.21194 5.57443C3.99978 3.96488 6.37229 3.06735 8.83909 3.06735ZM8.83732 7.17524C10.1834 7.17516 11.4815 7.67327 12.4793 8.57279C12.6142 8.70045 12.8268 8.69768 12.9584 8.56655L14.235 7.28238C14.3023 7.21502 14.3396 7.12364 14.3386 7.02869C14.3376 6.93373 14.2985 6.84313 14.2299 6.77715C11.1914 3.96328 6.48585 3.96328 3.44733 6.77715C3.3787 6.84313 3.33954 6.93378 3.33864 7.02876C3.33774 7.12375 3.37517 7.21512 3.44254 7.28238L4.71882 8.56655C4.85038 8.69768 5.06297 8.70045 5.19793 8.57279C6.19507 7.67386 7.49211 7.1758 8.83732 7.17524ZM11.3386 9.8944C11.3405 9.99694 11.3037 10.0958 11.237 10.1676L9.07829 12.557C9.01501 12.6272 8.92874 12.6667 8.83872 12.6667C8.7487 12.6667 8.66242 12.6272 8.59914 12.557L6.44011 10.1676C6.37341 10.0958 6.33672 9.99686 6.3387 9.89431C6.34068 9.79177 6.38115 9.69466 6.45056 9.62592C7.82917 8.34702 9.84827 8.34702 11.2269 9.62592C11.2962 9.69472 11.3366 9.79185 11.3386 9.8944Z" fill="black"/>
</svg>
